<svg width="20" height="16" viewBox="0 0 20 16" fill="none" xmlns="http://www.w3.org/2000/svg">
<path d="M17 0C17.7956 0 18.5587 0.316071 19.1213 0.87868C19.6839 1.44129 20 2.20435 20 3V13C20 13.7956 19.6839 14.5587 19.1213 15.1213C18.5587 15.6839 17.7956 16 17 16H3C2.20435 16 1.44129 15.6839 0.87868 15.1213C0.316071 14.5587 0 13.7956 0 13V3C0 2.20435 0.316071 1.44129 0.87868 0.87868C1.44129 0.316071 2.20435 0 3 0H17ZM4.01 3L3.883 3.007C3.6299 3.0371 3.39786 3.16271 3.23426 3.35817C3.07067 3.55362 2.98789 3.80416 3.00283 4.05861C3.01777 4.31305 3.1293 4.55218 3.31463 4.72715C3.49997 4.90212 3.74512 4.99972 4 5L4.127 4.993C4.3801 4.9629 4.61215 4.83729 4.77574 4.64183C4.93933 4.44638 5.02211 4.19584 5.00717 3.94139C4.99223 3.68695 4.8807 3.44782 4.69537 3.27285C4.51003 3.09788 4.26488 3.00028 4.01 3ZM7.01 3L6.883 3.007C6.6299 3.0371 6.39785 3.16271 6.23426 3.35817C6.07067 3.55362 5.98789 3.80416 6.00283 4.05861C6.01776 4.31305 6.1293 4.55218 6.31463 4.72715C6.49997 4.90212 6.74512 4.99972 7 5L7.127 4.993C7.3801 4.9629 7.61214 4.83729 7.77573 4.64183C7.93933 4.44638 8.02211 4.19584 8.00717 3.94139C7.99223 3.68695 7.8807 3.44782 7.69537 3.27285C7.51003 3.09788 7.26488 3.00028 7.01 3Z" fill="black"/>
</svg>
